<mxfile host="app.diagrams.net" modified="2022-11-27T00:02:39.356Z" agent="5.0 (Windows NT 10.0; Win64; x64) AppleWebKit/537.36 (KHTML, like Gecko) Chrome/107.0.0.0 Safari/537.36" version="20.6.0" etag="smOThDrInvEKL_Q8Yosi" type="github">
  <diagram id="0BVxplb2n6BPWO80f_yE" name="Page-1">
    <mxGraphModel dx="2082" dy="904" grid="1" gridSize="10" guides="1" tooltips="1" connect="1" arrows="1" fold="1" page="0" pageScale="1" pageWidth="850" pageHeight="1100" math="0" shadow="0">
      <root>
        <mxCell id="0" />
        <mxCell id="1" parent="0" />
        <mxCell id="38kKls0BLFSM-j-8u95b-1" value="" style="rounded=0;whiteSpace=wrap;html=1;" vertex="1" parent="1">
          <mxGeometry y="100" width="120" height="60" as="geometry" />
        </mxCell>
        <mxCell id="38kKls0BLFSM-j-8u95b-2" value="&lt;font style=&quot;font-size: 20px;&quot;&gt;Unit&lt;/font&gt;" style="rounded=0;whiteSpace=wrap;html=1;" vertex="1" parent="1">
          <mxGeometry x="390" y="100" width="120" height="60" as="geometry" />
        </mxCell>
        <mxCell id="38kKls0BLFSM-j-8u95b-3" value="" style="rhombus;whiteSpace=wrap;html=1;" vertex="1" parent="1">
          <mxGeometry x="210" y="90" width="80" height="80" as="geometry" />
        </mxCell>
        <mxCell id="38kKls0BLFSM-j-8u95b-5" value="" style="endArrow=none;html=1;rounded=0;entryX=0;entryY=0.5;entryDx=0;entryDy=0;exitX=1;exitY=0.5;exitDx=0;exitDy=0;" edge="1" parent="1" source="38kKls0BLFSM-j-8u95b-1" target="38kKls0BLFSM-j-8u95b-3">
          <mxGeometry width="50" height="50" relative="1" as="geometry">
            <mxPoint x="120" y="140" as="sourcePoint" />
            <mxPoint x="170" y="90" as="targetPoint" />
          </mxGeometry>
        </mxCell>
        <mxCell id="38kKls0BLFSM-j-8u95b-6" value="" style="endArrow=none;html=1;rounded=0;entryX=0;entryY=0.5;entryDx=0;entryDy=0;exitX=1;exitY=0.5;exitDx=0;exitDy=0;" edge="1" parent="1" target="38kKls0BLFSM-j-8u95b-2">
          <mxGeometry width="50" height="50" relative="1" as="geometry">
            <mxPoint x="290" y="130" as="sourcePoint" />
            <mxPoint x="380" y="130" as="targetPoint" />
          </mxGeometry>
        </mxCell>
        <mxCell id="38kKls0BLFSM-j-8u95b-7" value="&lt;font style=&quot;font-size: 22px;&quot;&gt;Product&lt;/font&gt;" style="text;html=1;strokeColor=none;fillColor=none;align=center;verticalAlign=middle;whiteSpace=wrap;rounded=0;" vertex="1" parent="1">
          <mxGeometry x="30" y="115" width="60" height="30" as="geometry" />
        </mxCell>
        <mxCell id="38kKls0BLFSM-j-8u95b-10" value="&lt;font style=&quot;font-size: 22px;&quot;&gt;1&lt;/font&gt;" style="text;html=1;strokeColor=none;fillColor=none;align=center;verticalAlign=middle;whiteSpace=wrap;rounded=0;" vertex="1" parent="1">
          <mxGeometry x="130" y="100" width="60" height="30" as="geometry" />
        </mxCell>
        <mxCell id="38kKls0BLFSM-j-8u95b-13" value="&lt;font style=&quot;font-size: 22px;&quot;&gt;M&lt;/font&gt;" style="text;html=1;strokeColor=none;fillColor=none;align=center;verticalAlign=middle;whiteSpace=wrap;rounded=0;" vertex="1" parent="1">
          <mxGeometry x="300" y="100" width="60" height="30" as="geometry" />
        </mxCell>
        <mxCell id="38kKls0BLFSM-j-8u95b-15" value="" style="endArrow=none;html=1;rounded=0;fontSize=22;entryX=0.25;entryY=1;entryDx=0;entryDy=0;" edge="1" parent="1" target="38kKls0BLFSM-j-8u95b-1">
          <mxGeometry width="50" height="50" relative="1" as="geometry">
            <mxPoint x="-10" y="190" as="sourcePoint" />
            <mxPoint x="360" y="200" as="targetPoint" />
          </mxGeometry>
        </mxCell>
        <mxCell id="38kKls0BLFSM-j-8u95b-16" value="Id" style="ellipse;whiteSpace=wrap;html=1;fontSize=22;" vertex="1" parent="1">
          <mxGeometry x="-90" y="190" width="120" height="50" as="geometry" />
        </mxCell>
        <mxCell id="38kKls0BLFSM-j-8u95b-18" value="" style="endArrow=none;html=1;rounded=0;fontSize=22;entryX=0.417;entryY=1;entryDx=0;entryDy=0;entryPerimeter=0;" edge="1" parent="1" target="38kKls0BLFSM-j-8u95b-1">
          <mxGeometry width="50" height="50" relative="1" as="geometry">
            <mxPoint x="120" y="190" as="sourcePoint" />
            <mxPoint x="160" y="160" as="targetPoint" />
          </mxGeometry>
        </mxCell>
        <mxCell id="38kKls0BLFSM-j-8u95b-19" value="Barcode" style="ellipse;whiteSpace=wrap;html=1;fontSize=22;" vertex="1" parent="1">
          <mxGeometry x="40" y="190" width="120" height="50" as="geometry" />
        </mxCell>
        <mxCell id="38kKls0BLFSM-j-8u95b-22" value="" style="endArrow=none;html=1;rounded=0;fontSize=22;entryX=0;entryY=0;entryDx=0;entryDy=0;" edge="1" parent="1" target="38kKls0BLFSM-j-8u95b-1">
          <mxGeometry width="50" height="50" relative="1" as="geometry">
            <mxPoint x="-100" y="110" as="sourcePoint" />
            <mxPoint x="-60" y="80" as="targetPoint" />
          </mxGeometry>
        </mxCell>
        <mxCell id="38kKls0BLFSM-j-8u95b-23" value="NameEN" style="ellipse;whiteSpace=wrap;html=1;fontSize=22;" vertex="1" parent="1">
          <mxGeometry x="-180" y="110" width="120" height="50" as="geometry" />
        </mxCell>
        <mxCell id="38kKls0BLFSM-j-8u95b-24" value="" style="endArrow=none;html=1;rounded=0;fontSize=22;entryX=0.25;entryY=0;entryDx=0;entryDy=0;exitX=0.773;exitY=0.857;exitDx=0;exitDy=0;exitPerimeter=0;" edge="1" parent="1" source="38kKls0BLFSM-j-8u95b-25" target="38kKls0BLFSM-j-8u95b-1">
          <mxGeometry width="50" height="50" relative="1" as="geometry">
            <mxPoint x="-50" y="50" as="sourcePoint" />
            <mxPoint x="50" y="40" as="targetPoint" />
          </mxGeometry>
        </mxCell>
        <mxCell id="38kKls0BLFSM-j-8u95b-25" value="NameAR" style="ellipse;whiteSpace=wrap;html=1;fontSize=22;" vertex="1" parent="1">
          <mxGeometry x="-130" y="10" width="120" height="50" as="geometry" />
        </mxCell>
        <mxCell id="38kKls0BLFSM-j-8u95b-26" value="&lt;span style=&quot;color: rgb(0, 0, 0); font-family: Helvetica; font-size: 22px; font-style: normal; font-variant-ligatures: normal; font-variant-caps: normal; font-weight: 400; letter-spacing: normal; orphans: 2; text-align: center; text-indent: 0px; text-transform: none; widows: 2; word-spacing: 0px; -webkit-text-stroke-width: 0px; background-color: rgb(255, 255, 255); text-decoration-thickness: initial; text-decoration-style: initial; text-decoration-color: initial; float: none; display: inline !important;&quot;&gt;1&lt;/span&gt;" style="text;whiteSpace=wrap;html=1;fontSize=20;" vertex="1" parent="1">
          <mxGeometry x="320" y="130" width="50" height="50" as="geometry" />
        </mxCell>
        <mxCell id="38kKls0BLFSM-j-8u95b-27" value="&lt;span style=&quot;color: rgb(0, 0, 0); font-family: Helvetica; font-size: 22px; font-style: normal; font-variant-ligatures: normal; font-variant-caps: normal; font-weight: 400; letter-spacing: normal; orphans: 2; text-align: center; text-indent: 0px; text-transform: none; widows: 2; word-spacing: 0px; -webkit-text-stroke-width: 0px; background-color: rgb(255, 255, 255); text-decoration-thickness: initial; text-decoration-style: initial; text-decoration-color: initial; float: none; display: inline !important;&quot;&gt;M&lt;/span&gt;" style="text;whiteSpace=wrap;html=1;fontSize=20;" vertex="1" parent="1">
          <mxGeometry x="150" y="130" width="50" height="50" as="geometry" />
        </mxCell>
        <mxCell id="38kKls0BLFSM-j-8u95b-34" value="Product units" style="shape=table;startSize=30;container=1;collapsible=0;childLayout=tableLayout;fontStyle=1;align=center;fontSize=20;" vertex="1" parent="1">
          <mxGeometry x="-640" y="250" width="440" height="100" as="geometry" />
        </mxCell>
        <mxCell id="38kKls0BLFSM-j-8u95b-35" value="" style="shape=tableRow;horizontal=0;startSize=0;swimlaneHead=0;swimlaneBody=0;top=0;left=0;bottom=0;right=0;collapsible=0;dropTarget=0;fillColor=none;points=[[0,0.5],[1,0.5]];portConstraint=eastwest;fontSize=20;" vertex="1" parent="38kKls0BLFSM-j-8u95b-34">
          <mxGeometry y="30" width="440" height="23" as="geometry" />
        </mxCell>
        <mxCell id="38kKls0BLFSM-j-8u95b-36" value="P_ID&lt;span style=&quot;white-space: pre;&quot;&gt;	&lt;/span&gt;" style="shape=partialRectangle;html=1;whiteSpace=wrap;connectable=0;fillColor=none;top=0;left=0;bottom=0;right=0;overflow=hidden;fontSize=20;" vertex="1" parent="38kKls0BLFSM-j-8u95b-35">
          <mxGeometry width="146" height="23" as="geometry">
            <mxRectangle width="146" height="23" as="alternateBounds" />
          </mxGeometry>
        </mxCell>
        <mxCell id="38kKls0BLFSM-j-8u95b-37" value="U_ID" style="shape=partialRectangle;html=1;whiteSpace=wrap;connectable=0;fillColor=none;top=0;left=0;bottom=0;right=0;overflow=hidden;fontSize=20;" vertex="1" parent="38kKls0BLFSM-j-8u95b-35">
          <mxGeometry x="146" width="148" height="23" as="geometry">
            <mxRectangle width="148" height="23" as="alternateBounds" />
          </mxGeometry>
        </mxCell>
        <mxCell id="38kKls0BLFSM-j-8u95b-38" value="" style="shape=partialRectangle;html=1;whiteSpace=wrap;connectable=0;fillColor=none;top=0;left=0;bottom=0;right=0;overflow=hidden;fontSize=20;" vertex="1" parent="38kKls0BLFSM-j-8u95b-35">
          <mxGeometry x="294" width="146" height="23" as="geometry">
            <mxRectangle width="146" height="23" as="alternateBounds" />
          </mxGeometry>
        </mxCell>
        <mxCell id="38kKls0BLFSM-j-8u95b-39" value="" style="shape=tableRow;horizontal=0;startSize=0;swimlaneHead=0;swimlaneBody=0;top=0;left=0;bottom=0;right=0;collapsible=0;dropTarget=0;fillColor=none;points=[[0,0.5],[1,0.5]];portConstraint=eastwest;fontSize=20;" vertex="1" parent="38kKls0BLFSM-j-8u95b-34">
          <mxGeometry y="53" width="440" height="24" as="geometry" />
        </mxCell>
        <mxCell id="38kKls0BLFSM-j-8u95b-40" value="" style="shape=partialRectangle;html=1;whiteSpace=wrap;connectable=0;fillColor=none;top=0;left=0;bottom=0;right=0;overflow=hidden;fontSize=20;" vertex="1" parent="38kKls0BLFSM-j-8u95b-39">
          <mxGeometry width="146" height="24" as="geometry">
            <mxRectangle width="146" height="24" as="alternateBounds" />
          </mxGeometry>
        </mxCell>
        <mxCell id="38kKls0BLFSM-j-8u95b-41" value="" style="shape=partialRectangle;html=1;whiteSpace=wrap;connectable=0;fillColor=none;top=0;left=0;bottom=0;right=0;overflow=hidden;fontSize=20;" vertex="1" parent="38kKls0BLFSM-j-8u95b-39">
          <mxGeometry x="146" width="148" height="24" as="geometry">
            <mxRectangle width="148" height="24" as="alternateBounds" />
          </mxGeometry>
        </mxCell>
        <mxCell id="38kKls0BLFSM-j-8u95b-42" value="" style="shape=partialRectangle;html=1;whiteSpace=wrap;connectable=0;fillColor=none;top=0;left=0;bottom=0;right=0;overflow=hidden;fontSize=20;" vertex="1" parent="38kKls0BLFSM-j-8u95b-39">
          <mxGeometry x="294" width="146" height="24" as="geometry">
            <mxRectangle width="146" height="24" as="alternateBounds" />
          </mxGeometry>
        </mxCell>
        <mxCell id="38kKls0BLFSM-j-8u95b-43" value="" style="shape=tableRow;horizontal=0;startSize=0;swimlaneHead=0;swimlaneBody=0;top=0;left=0;bottom=0;right=0;collapsible=0;dropTarget=0;fillColor=none;points=[[0,0.5],[1,0.5]];portConstraint=eastwest;fontSize=20;" vertex="1" parent="38kKls0BLFSM-j-8u95b-34">
          <mxGeometry y="77" width="440" height="23" as="geometry" />
        </mxCell>
        <mxCell id="38kKls0BLFSM-j-8u95b-44" value="" style="shape=partialRectangle;html=1;whiteSpace=wrap;connectable=0;fillColor=none;top=0;left=0;bottom=0;right=0;overflow=hidden;fontSize=20;" vertex="1" parent="38kKls0BLFSM-j-8u95b-43">
          <mxGeometry width="146" height="23" as="geometry">
            <mxRectangle width="146" height="23" as="alternateBounds" />
          </mxGeometry>
        </mxCell>
        <mxCell id="38kKls0BLFSM-j-8u95b-45" value="" style="shape=partialRectangle;html=1;whiteSpace=wrap;connectable=0;fillColor=none;top=0;left=0;bottom=0;right=0;overflow=hidden;fontSize=20;" vertex="1" parent="38kKls0BLFSM-j-8u95b-43">
          <mxGeometry x="146" width="148" height="23" as="geometry">
            <mxRectangle width="148" height="23" as="alternateBounds" />
          </mxGeometry>
        </mxCell>
        <mxCell id="38kKls0BLFSM-j-8u95b-46" value="" style="shape=partialRectangle;html=1;whiteSpace=wrap;connectable=0;fillColor=none;top=0;left=0;bottom=0;right=0;overflow=hidden;fontSize=20;" vertex="1" parent="38kKls0BLFSM-j-8u95b-43">
          <mxGeometry x="294" width="146" height="23" as="geometry">
            <mxRectangle width="146" height="23" as="alternateBounds" />
          </mxGeometry>
        </mxCell>
        <mxCell id="38kKls0BLFSM-j-8u95b-58" value="" style="endArrow=none;html=1;rounded=0;fontSize=22;entryX=0.338;entryY=0.025;entryDx=0;entryDy=0;exitX=0.5;exitY=1;exitDx=0;exitDy=0;entryPerimeter=0;" edge="1" parent="1" source="38kKls0BLFSM-j-8u95b-59" target="38kKls0BLFSM-j-8u95b-2">
          <mxGeometry width="50" height="50" relative="1" as="geometry">
            <mxPoint x="519" y="140" as="sourcePoint" />
            <mxPoint x="619" y="130" as="targetPoint" />
          </mxGeometry>
        </mxCell>
        <mxCell id="38kKls0BLFSM-j-8u95b-59" value="NameEN" style="ellipse;whiteSpace=wrap;html=1;fontSize=22;" vertex="1" parent="1">
          <mxGeometry x="340" y="20" width="120" height="50" as="geometry" />
        </mxCell>
        <mxCell id="38kKls0BLFSM-j-8u95b-60" value="" style="endArrow=none;html=1;rounded=0;fontSize=22;exitX=0.773;exitY=0.857;exitDx=0;exitDy=0;exitPerimeter=0;" edge="1" parent="1" source="38kKls0BLFSM-j-8u95b-61" target="38kKls0BLFSM-j-8u95b-2">
          <mxGeometry width="50" height="50" relative="1" as="geometry">
            <mxPoint x="569" y="80" as="sourcePoint" />
            <mxPoint x="649" y="130" as="targetPoint" />
          </mxGeometry>
        </mxCell>
        <mxCell id="38kKls0BLFSM-j-8u95b-61" value="NameAR" style="ellipse;whiteSpace=wrap;html=1;fontSize=22;" vertex="1" parent="1">
          <mxGeometry x="489" y="40" width="120" height="50" as="geometry" />
        </mxCell>
        <mxCell id="38kKls0BLFSM-j-8u95b-62" value="Cateogry" style="rounded=0;whiteSpace=wrap;html=1;fontSize=20;" vertex="1" parent="1">
          <mxGeometry y="-230" width="120" height="60" as="geometry" />
        </mxCell>
        <mxCell id="38kKls0BLFSM-j-8u95b-63" value="Brand" style="rounded=0;whiteSpace=wrap;html=1;fontSize=20;" vertex="1" parent="1">
          <mxGeometry x="420" y="-230" width="120" height="60" as="geometry" />
        </mxCell>
        <mxCell id="38kKls0BLFSM-j-8u95b-64" value="" style="endArrow=none;html=1;rounded=0;fontSize=20;" edge="1" parent="1" target="38kKls0BLFSM-j-8u95b-65">
          <mxGeometry width="50" height="50" relative="1" as="geometry">
            <mxPoint x="120" y="-200" as="sourcePoint" />
            <mxPoint x="210" y="-205" as="targetPoint" />
          </mxGeometry>
        </mxCell>
        <mxCell id="38kKls0BLFSM-j-8u95b-65" value="" style="rhombus;whiteSpace=wrap;html=1;fontSize=20;" vertex="1" parent="1">
          <mxGeometry x="220" y="-240" width="80" height="80" as="geometry" />
        </mxCell>
        <mxCell id="38kKls0BLFSM-j-8u95b-66" value="" style="endArrow=none;html=1;rounded=0;fontSize=20;exitX=1;exitY=0.5;exitDx=0;exitDy=0;" edge="1" parent="1" source="38kKls0BLFSM-j-8u95b-65">
          <mxGeometry width="50" height="50" relative="1" as="geometry">
            <mxPoint x="320" y="-200.59" as="sourcePoint" />
            <mxPoint x="420" y="-200.59" as="targetPoint" />
          </mxGeometry>
        </mxCell>
        <mxCell id="38kKls0BLFSM-j-8u95b-67" value="&lt;font style=&quot;font-size: 22px;&quot;&gt;1&lt;/font&gt;" style="text;html=1;strokeColor=none;fillColor=none;align=center;verticalAlign=middle;whiteSpace=wrap;rounded=0;" vertex="1" parent="1">
          <mxGeometry x="140" y="-230" width="60" height="30" as="geometry" />
        </mxCell>
        <mxCell id="38kKls0BLFSM-j-8u95b-68" value="&lt;font style=&quot;font-size: 22px;&quot;&gt;M&lt;/font&gt;" style="text;html=1;strokeColor=none;fillColor=none;align=center;verticalAlign=middle;whiteSpace=wrap;rounded=0;" vertex="1" parent="1">
          <mxGeometry x="320" y="-230" width="60" height="30" as="geometry" />
        </mxCell>
        <mxCell id="38kKls0BLFSM-j-8u95b-69" value="" style="rhombus;whiteSpace=wrap;html=1;fontSize=20;" vertex="1" parent="1">
          <mxGeometry x="220" y="-80" width="80" height="80" as="geometry" />
        </mxCell>
        <mxCell id="38kKls0BLFSM-j-8u95b-70" value="" style="endArrow=none;html=1;rounded=0;fontSize=20;entryX=0.25;entryY=1;entryDx=0;entryDy=0;exitX=0.764;exitY=0.357;exitDx=0;exitDy=0;exitPerimeter=0;" edge="1" parent="1" source="38kKls0BLFSM-j-8u95b-69" target="38kKls0BLFSM-j-8u95b-63">
          <mxGeometry width="50" height="50" relative="1" as="geometry">
            <mxPoint x="360" y="-20" as="sourcePoint" />
            <mxPoint x="410" y="-70" as="targetPoint" />
          </mxGeometry>
        </mxCell>
        <mxCell id="38kKls0BLFSM-j-8u95b-71" value="" style="endArrow=none;html=1;rounded=0;fontSize=20;entryX=0.166;entryY=0.769;entryDx=0;entryDy=0;exitX=1;exitY=0.375;exitDx=0;exitDy=0;exitPerimeter=0;entryPerimeter=0;" edge="1" parent="1" target="38kKls0BLFSM-j-8u95b-69">
          <mxGeometry width="50" height="50" relative="1" as="geometry">
            <mxPoint x="70" y="100" as="sourcePoint" />
            <mxPoint x="220" y="-20" as="targetPoint" />
          </mxGeometry>
        </mxCell>
        <mxCell id="38kKls0BLFSM-j-8u95b-72" value="&lt;font style=&quot;font-size: 22px;&quot;&gt;1&lt;/font&gt;" style="text;html=1;strokeColor=none;fillColor=none;align=center;verticalAlign=middle;whiteSpace=wrap;rounded=0;" vertex="1" parent="1">
          <mxGeometry x="310" y="-130" width="60" height="30" as="geometry" />
        </mxCell>
        <mxCell id="38kKls0BLFSM-j-8u95b-75" value="&lt;font style=&quot;font-size: 22px;&quot;&gt;M&lt;/font&gt;" style="text;html=1;strokeColor=none;fillColor=none;align=center;verticalAlign=middle;whiteSpace=wrap;rounded=0;" vertex="1" parent="1">
          <mxGeometry x="120" y="10" width="60" height="30" as="geometry" />
        </mxCell>
      </root>
    </mxGraphModel>
  </diagram>
</mxfile>
